<?xml version="1.0" encoding="UTF-8" standalone="no"?>
<svg
   xmlns:dc="http://purl.org/dc/elements/1.1/"
   xmlns:cc="http://creativecommons.org/ns#"
   xmlns:rdf="http://www.w3.org/1999/02/22-rdf-syntax-ns#"
   xmlns:svg="http://www.w3.org/2000/svg"
   xmlns="http://www.w3.org/2000/svg"
   xmlns:sodipodi="http://sodipodi.sourceforge.net/DTD/sodipodi-0.dtd"
   xmlns:inkscape="http://www.inkscape.org/namespaces/inkscape"
   id="Layer_1"
   data-name="Layer 1"
   viewBox="0 0 16 16"
   version="1.1"
   sodipodi:docname="icon-dataentry-protected.svg"
   width="16"
   height="16"
   inkscape:version="0.92.2 (5c3e80d, 2017-08-06)">
  <metadata
     id="metadata867">
    <rdf:RDF>
      <cc:Work
         rdf:about="">
        <dc:format>image/svg+xml</dc:format>
        <dc:type
           rdf:resource="http://purl.org/dc/dcmitype/StillImage" />
        <dc:title>binding</dc:title>
      </cc:Work>
    </rdf:RDF>
  </metadata>
  <sodipodi:namedview
     pagecolor="#ffffff"
     bordercolor="#666666"
     borderopacity="1"
     objecttolerance="10"
     gridtolerance="10"
     guidetolerance="10"
     inkscape:pageopacity="0"
     inkscape:pageshadow="2"
     inkscape:window-width="2880"
     inkscape:window-height="1526"
     id="namedview865"
     showgrid="false"
     inkscape:zoom="38.15"
     inkscape:cx="9.5288336"
     inkscape:cy="5.4521625"
     inkscape:window-x="2869"
     inkscape:window-y="-11"
     inkscape:window-maximized="1"
     inkscape:current-layer="g2201" />
  <defs
     id="defs844">
    <style
       id="style842">.cls-1{fill:#fff;}.cls-2{fill:#555;}</style>
    <style
       id="style849">.cls-1{fill:#555;}.cls-2{fill:none;stroke:#555;}.cls-2,.cls-3{stroke-miterlimit:10;}.cls-3{fill:#ababab;stroke:#fff;stroke-width:3px;}</style>
    <clipPath
       clipPathUnits="userSpaceOnUse"
       id="clipPath900">
      <rect
         style="fill:none;fill-opacity:1"
         id="rect902"
         width="15.884665"
         height="15.989515"
         x="-0.20969856"
         y="0.036697246" />
    </clipPath>
    <clipPath
       clipPathUnits="userSpaceOnUse"
       id="clipPath904">
      <rect
         style="fill:none;fill-opacity:1"
         id="rect906"
         width="15.884665"
         height="15.989515"
         x="-0.20969856"
         y="0.036697246" />
    </clipPath>
    <clipPath
       clipPathUnits="userSpaceOnUse"
       id="clipPath908">
      <rect
         style="fill:none;fill-opacity:1"
         id="rect910"
         width="15.884665"
         height="15.989515"
         x="-0.20969856"
         y="0.036697246" />
    </clipPath>
    <clipPath
       clipPathUnits="userSpaceOnUse"
       id="clipPath912">
      <rect
         style="fill:none;fill-opacity:1"
         id="rect914"
         width="15.884665"
         height="15.989515"
         x="-0.20969856"
         y="0.036697246" />
    </clipPath>
    <clipPath
       clipPathUnits="userSpaceOnUse"
       id="clipPath916">
      <rect
         style="fill:none;fill-opacity:1;stroke-width:1.11111116"
         id="rect918"
         width="17.649628"
         height="17.766129"
         x="1.2415975"
         y="0.23109505" />
    </clipPath>
    <clipPath
       clipPathUnits="userSpaceOnUse"
       id="clipPath920">
      <rect
         style="fill:none;fill-opacity:1"
         id="rect922"
         width="15.884665"
         height="15.989515"
         x="-0.20969856"
         y="0.036697246" />
    </clipPath>
    <clipPath
       clipPathUnits="userSpaceOnUse"
       id="clipPath924">
      <rect
         style="fill:none;fill-opacity:1"
         id="rect926"
         width="15.884665"
         height="15.989515"
         x="-0.20969856"
         y="0.036697246" />
    </clipPath>
    <clipPath
       clipPathUnits="userSpaceOnUse"
       id="clipPath928">
      <rect
         style="fill:none;fill-opacity:1"
         id="rect930"
         width="15.884665"
         height="15.989515"
         x="-0.20969856"
         y="0.036697246" />
    </clipPath>
    <clipPath
       clipPathUnits="userSpaceOnUse"
       id="clipPath932">
      <rect
         style="fill:none;fill-opacity:1"
         id="rect934"
         width="15.884665"
         height="15.989515"
         x="1.7824378"
         y="2.0969856" />
    </clipPath>
    <style
       id="style2157">.cls-1{fill:#555;}.cls-2{fill:#fff;}</style>
    <style
       id="style2180">.cls-1{fill:#555;}.cls-2{fill:#fff;}</style>
  </defs>
  <title
     id="title846">binding</title>
  <polygon
     class="cls-1"
     points="8.45,6.56 11.55,6.56 11.55,10.83 16.17,10.83 16.17,13.85 4.67,13.85 4.67,10.83 8.45,10.83 "
     id="polygon848"
     style="fill:#ffffff"
     transform="translate(-1.7300131,-2.0078637)"
     clip-path="url(#clipPath932)" />
  <rect
     class="cls-1"
     x="1.7478637"
     y="8.2697115"
     width="2"
     height="4"
     id="rect852"
     style="fill:#ffffff"
     clip-path="url(#clipPath928)"
     transform="translate(0.2621232,0.05242464)" />
  <rect
     class="cls-1"
     x="12.267864"
     y="8.2697115"
     width="2"
     height="4"
     id="rect856"
     style="fill:#ffffff"
     clip-path="url(#clipPath924)"
     transform="translate(0.2621232,0.05242464)" />
  <rect
     class="cls-1"
     x="5.9278641"
     y="3.6097116"
     width="4"
     height="2"
     id="rect860"
     style="fill:#ffffff"
     clip-path="url(#clipPath920)"
     transform="translate(0.2621232,0.05242464)" />
  <g
     id="g894"
     transform="matrix(0.9,0,0,0.9,-1.0650131,-0.11886366)"
     clip-path="url(#clipPath916)">
    <path
       id="path855"
       d="M 17.63,5.85 V 16.18 H 7.3 V 5.85 h 10.33 m 0,-1 H 7.3 a 1,1 0 0 0 -1,1 v 10.33 a 1,1 0 0 0 1,1 h 10.33 a 1,1 0 0 0 1,-1 V 5.85 a 1,1 0 0 0 -1,-1 z"
       class="cls-1"
       inkscape:connector-curvature="0"
       style="fill:#555555" />
    <line
       id="line857"
       y2="8.6099997"
       x2="18.18"
       y1="8.6099997"
       x1="6.6300001"
       class="cls-2"
       style="fill:none;stroke:#555555;stroke-miterlimit:10" />
    <line
       id="line859"
       y2="11.32"
       x2="18.459999"
       y1="11.32"
       x1="6.7399998"
       class="cls-2"
       style="fill:none;stroke:#555555;stroke-miterlimit:10" />
    <line
       id="line861"
       y2="8.6499996"
       x2="14.37"
       y1="16.93"
       x1="14.37"
       class="cls-2"
       style="fill:none;stroke:#555555;stroke-miterlimit:10" />
    <line
       id="line863"
       y2="8.6499996"
       x2="10.55"
       y1="16.93"
       x1="10.55"
       class="cls-2"
       style="fill:none;stroke:#555555;stroke-miterlimit:10" />
    <line
       id="line865"
       y2="14.03"
       x2="18.24"
       y1="14.03"
       x1="6.8499999"
       class="cls-2"
       style="fill:none;stroke:#555555;stroke-miterlimit:10" />
    <rect
       id="rect867"
       height="3.3"
       width="11.5"
       y="5.3200002"
       x="6.6799998"
       class="cls-1"
       style="fill:#555555" />
    <path
       id="path869"
       d="M 5.55,8.56 5.14,7.21 H 3.08 L 2.67,8.56 h -1.3 l 2,-5.68 h 1.47 l 2,5.68 z M 4.85,6.2 4.21,4.13 C 4.21,3.97 4.13,3.85 4.11,3.75 4,4.08 3.78,4.9 3.38,6.2 Z"
       class="cls-3"
       inkscape:connector-curvature="0"
       style="fill:#ababab;stroke:#ffffff;stroke-width:3px;stroke-miterlimit:10" />
    <path
       id="path871"
       d="m 11.09,4.16 a 1.32,1.32 0 0 1 -0.32,0.91 1.73,1.73 0 0 1 -0.9,0.51 v 0 A 1.84,1.84 0 0 1 10.87,6 1.17,1.17 0 0 1 11.22,6.89 1.52,1.52 0 0 1 10.63,8.16 2.76,2.76 0 0 1 9,8.63 4.21,4.21 0 0 1 7.36,8.33 v -1 A 3.69,3.69 0 0 0 8.09,7.6 3,3 0 0 0 8.87,7.71 1.45,1.45 0 0 0 9.74,7.5 0.73,0.73 0 0 0 10,6.84 0.58,0.58 0 0 0 9.67,6.27 2.45,2.45 0 0 0 8.67,6.11 H 8.21 V 5.19 h 0.44 a 2.08,2.08 0 0 0 1,-0.17 0.62,0.62 0 0 0 0.31,-0.59 C 9.96,4 9.69,3.78 9.15,3.78 A 1.89,1.89 0 0 0 8.59,3.88 2.54,2.54 0 0 0 7.95,4.2 L 7.39,3.37 a 3.09,3.09 0 0 1 1.81,-0.55 2.46,2.46 0 0 1 1.39,0.35 1.16,1.16 0 0 1 0.5,0.99 z"
       class="cls-3"
       inkscape:connector-curvature="0"
       style="fill:#ababab;stroke:#ffffff;stroke-width:3px;stroke-miterlimit:10" />
    <path
       id="path873"
       d="M 5.55,8.56 5.14,7.21 H 3.08 L 2.67,8.56 h -1.3 l 2,-5.68 h 1.47 l 2,5.68 z M 4.85,6.2 4.21,4.13 C 4.21,3.97 4.13,3.85 4.11,3.75 4,4.08 3.78,4.9 3.38,6.2 Z"
       class="cls-1"
       inkscape:connector-curvature="0"
       style="fill:#555555" />
    <path
       id="path875"
       d="m 11.09,4.16 a 1.32,1.32 0 0 1 -0.32,0.91 1.73,1.73 0 0 1 -0.9,0.51 v 0 A 1.84,1.84 0 0 1 10.87,6 1.17,1.17 0 0 1 11.22,6.89 1.52,1.52 0 0 1 10.63,8.16 2.76,2.76 0 0 1 9,8.63 4.21,4.21 0 0 1 7.36,8.33 v -1 A 3.69,3.69 0 0 0 8.09,7.6 3,3 0 0 0 8.87,7.71 1.45,1.45 0 0 0 9.74,7.5 0.73,0.73 0 0 0 10,6.84 0.58,0.58 0 0 0 9.67,6.27 2.45,2.45 0 0 0 8.67,6.11 H 8.21 V 5.19 h 0.44 a 2.08,2.08 0 0 0 1,-0.17 0.62,0.62 0 0 0 0.31,-0.59 C 9.96,4 9.69,3.78 9.15,3.78 A 1.89,1.89 0 0 0 8.59,3.88 2.54,2.54 0 0 0 7.95,4.2 L 7.39,3.37 a 3.09,3.09 0 0 1 1.81,-0.55 2.46,2.46 0 0 1 1.39,0.35 1.16,1.16 0 0 1 0.5,0.99 z"
       class="cls-1"
       inkscape:connector-curvature="0"
       style="fill:#555555" />
  </g>
  <rect
     style="fill:none;fill-opacity:1"
     id="rect896"
     width="16.015728"
     height="16.015728"
     x="0.052424639"
     y="0.036697246"
     clip-path="url(#clipPath900)"
     transform="translate(0.2621232,0.05242464)" />
  <g
     id="g2201"
     transform="translate(-22.791612,-8.192048)">
    <path
       id="path2186"
       d="m 35.190039,17.650741 a 0.99328,0.99328 0 0 1 0.98816,0.97792 v 0.79872 h -1.98144 v -0.79872 a 0.99328,0.99328 0 0 1 0.99328,-0.97792 m 0,-0.78336 a 1.75616,1.75616 0 0 0 -1.75616,1.75104 v 0 1.06496 h 3.52256 v -1.06496 0 a 1.75616,1.75616 0 0 0 -1.7664,-1.75104 z"
       class="cls-1"
       inkscape:connector-curvature="0"
       style="fill:#006d9a;fill-opacity:1;stroke-width:0.51199996" />
    <rect
       id="rect2188"
       ry="0.76800001"
       rx="0.76800001"
       height="4.6079998"
       width="6.6559997"
       y="19.41202"
       x="31.862041"
       class="cls-1"
       style="fill:#006d9a;fill-opacity:1;stroke-width:0.51199996" />
    <path
       id="path2190"
       d="m 35.512599,21.77746 v 1.05472 h -0.64512 v -1.05472 a 0.62464,0.62464 0 0 1 -0.31232,-0.5376 0.63488,0.63488 0 0 1 1.26976,0 0.62464,0.62464 0 0 1 -0.31232,0.5376 z"
       class="cls-2"
       inkscape:connector-curvature="0"
       style="fill:#ffffff;stroke-width:0.51199996" />
  </g>
</svg>
