<?xml version="1.0" encoding="UTF-8" standalone="no"?>
<svg
   xmlns:dc="http://purl.org/dc/elements/1.1/"
   xmlns:cc="http://creativecommons.org/ns#"
   xmlns:rdf="http://www.w3.org/1999/02/22-rdf-syntax-ns#"
   xmlns:svg="http://www.w3.org/2000/svg"
   xmlns="http://www.w3.org/2000/svg"
   xmlns:sodipodi="http://sodipodi.sourceforge.net/DTD/sodipodi-0.dtd"
   xmlns:inkscape="http://www.inkscape.org/namespaces/inkscape"
   id="Layer_1"
   data-name="Layer 1"
   viewBox="0 0 16 16"
   version="1.1"
   sodipodi:docname="icon-unprotected.svg"
   width="16"
   height="16"
   inkscape:version="0.92.2 (5c3e80d, 2017-08-06)">
  <metadata
     id="metadata863">
    <rdf:RDF>
      <cc:Work
         rdf:about="">
        <dc:format>image/svg+xml</dc:format>
        <dc:type
           rdf:resource="http://purl.org/dc/dcmitype/StillImage" />
        <dc:title>entity</dc:title>
      </cc:Work>
    </rdf:RDF>
  </metadata>
  <sodipodi:namedview
     pagecolor="#ffffff"
     bordercolor="#666666"
     borderopacity="1"
     objecttolerance="10"
     gridtolerance="10"
     guidetolerance="10"
     inkscape:pageopacity="0"
     inkscape:pageshadow="2"
     inkscape:window-width="2880"
     inkscape:window-height="1526"
     id="namedview861"
     showgrid="false"
     inkscape:zoom="38.15"
     inkscape:cx="1.7431193"
     inkscape:cy="10"
     inkscape:window-x="2869"
     inkscape:window-y="-11"
     inkscape:window-maximized="1"
     inkscape:current-layer="g3259" />
  <defs
     id="defs842">
    <style
       id="style840">.cls-1{fill:#555;}.cls-2{fill:none;stroke:#555;stroke-miterlimit:10;}</style>
    <style
       id="style3238">.cls-1{fill:#555;}.cls-2{fill:#fff;}</style>
  </defs>
  <title
     id="title844">entity</title>
  <g
     id="g3259"
     transform="translate(-2.0838797,-2.0059406)">
    <path
       inkscape:connector-curvature="0"
       d="m 13.718177,3.7933126 c -2.12625,0.00759 -3.834844,1.7592194 -3.834844,3.885469 V 9.4633129 H 4.2133329 c -0.6707812,0 -1.215,0.5442191 -1.215,1.2150001 v 4.859999 c 0,0.670781 0.5442188,1.215 1.215,1.215 h 8.9100001 c 0.670782,0 1.215,-0.544219 1.215,-1.215 v -4.859999 c 0,-0.670781 -0.544218,-1.2150001 -1.215,-1.2150001 h -1.215 V 7.6635941 c 0,-1.002375 0.802407,-1.8351562 1.804782,-1.8452812 1.0125,-0.010125 1.840218,0.8125312 1.840218,1.8225 v 2.025 c 0,0.3366561 0.270844,0.6075001 0.6075,0.6075001 h 0.81 c 0.336657,0 0.6075,-0.270844 0.6075,-0.6075001 v -2.025 c 0,-2.1262497 -1.733906,-3.8550941 -3.860156,-3.8475003 z"
       id="path825"
       style="fill:#555555;fill-opacity:1;stroke-width:0.0253125" />
    <path
       id="path3248-0"
       d="m 9.1000769,13.487555 v 1.6686 h -1.0206 v -1.6686 a 0.9882,0.9882 0 0 1 -0.4941,-0.8505 1.0044002,1.0044002 0 0 1 2.0088001,0 0.9882,0.9882 0 0 1 -0.4941001,0.8505 z"
       class="cls-2"
       inkscape:connector-curvature="0"
       style="fill:#ffffff;stroke-width:0.81" />
  </g>
</svg>
