<?xml version="1.0" encoding="UTF-8" standalone="no"?>
<svg
   xmlns:dc="http://purl.org/dc/elements/1.1/"
   xmlns:cc="http://creativecommons.org/ns#"
   xmlns:rdf="http://www.w3.org/1999/02/22-rdf-syntax-ns#"
   xmlns:svg="http://www.w3.org/2000/svg"
   xmlns="http://www.w3.org/2000/svg"
   xmlns:sodipodi="http://sodipodi.sourceforge.net/DTD/sodipodi-0.dtd"
   xmlns:inkscape="http://www.inkscape.org/namespaces/inkscape"
   id="Layer_1"
   data-name="Layer 1"
   viewBox="0 0 16 16"
   version="1.1"
   sodipodi:docname="icon-pk.svg"
   width="16"
   height="16"
   inkscape:version="0.92.2 (5c3e80d, 2017-08-06)">
  <metadata
     id="metadata867">
    <rdf:RDF>
      <cc:Work
         rdf:about="">
        <dc:format>image/svg+xml</dc:format>
        <dc:type
           rdf:resource="http://purl.org/dc/dcmitype/StillImage" />
        <dc:title>binding</dc:title>
      </cc:Work>
    </rdf:RDF>
  </metadata>
  <sodipodi:namedview
     pagecolor="#ffffff"
     bordercolor="#666666"
     borderopacity="1"
     objecttolerance="10"
     gridtolerance="10"
     guidetolerance="10"
     inkscape:pageopacity="0"
     inkscape:pageshadow="2"
     inkscape:window-width="2880"
     inkscape:window-height="1526"
     id="namedview865"
     showgrid="false"
     inkscape:zoom="38.15"
     inkscape:cx="4.7051114"
     inkscape:cy="10"
     inkscape:window-x="2869"
     inkscape:window-y="-11"
     inkscape:window-maximized="1"
     inkscape:current-layer="Layer_1" />
  <defs
     id="defs844">
    <style
       id="style842">.cls-1{fill:#fff;}.cls-2{fill:#555;}</style>
  </defs>
  <title
     id="title846">binding</title>
  <path
     inkscape:connector-curvature="0"
     d="m 15.028575,6.1315743 c 0,2.6906137 -2.181179,4.8717657 -4.871793,4.8717657 -0.3105778,0 -0.6142339,-0.0294 -0.9086727,-0.08494 L 8.5834408,11.666157 A 0.6643077,0.66430769 0 0 1 8.086906,11.889126 H 7.0565502 v 1.107227 c 0,0.366905 -0.2974275,0.664334 -0.6643354,0.664334 H 5.2849892 v 1.107227 c 0,0.366905 -0.2974275,0.664334 -0.6643354,0.664334 H 1.520422 c -0.3669062,0 -0.66433531,-0.297429 -0.66433531,-0.664334 V 12.60719 c 0,-0.176181 0.0699952,-0.345178 0.19456701,-0.469767 L 5.529438,7.658632 C 5.3710249,7.1782623 5.2849892,6.6649801 5.2849892,6.1315465 c 0,-2.6906135 2.181151,-4.8717653 4.8717638,-4.8717928 2.698561,-2.79e-5 4.871822,2.1732349 4.871822,4.8718206 z M 10.156782,4.8028757 c 0,0.7338141 0.594856,1.3286708 1.328671,1.3286708 0.733812,0 1.328671,-0.5948567 1.328671,-1.3286708 0,-0.7338138 -0.594859,-1.3286707 -1.328671,-1.3286707 -0.733815,0 -1.328671,0.5948569 -1.328671,1.3286707 z"
     id="path825"
     style="stroke-width:0.02768065;fill:#DFD84F;fill-opacity:1" />
</svg>
