<svg xmlns="http://www.w3.org/2000/svg" viewBox="0 0 55 91.6"><defs><style>.cls-1{fill:#fff;}</style></defs><title>Triflame_white</title><g id="Layer_2" data-name="Layer 2"><g id="Layer_1-2" data-name="Layer 1"><path class="cls-1" d="M28,91.6a24.34,24.34,0,0,1-7.6-6,28,28,0,0,1-5.1-8.9,32.85,32.85,0,0,1-1.9-10.9c0-23,19.1-35.5,17-58.7a9.2,9.2,0,0,0-.7-3.8A7.43,7.43,0,0,0,28,0a24.34,24.34,0,0,1,7.6,6,28,28,0,0,1,5.1,8.9,32.85,32.85,0,0,1,1.9,10.9c0,19.9-18.1,34.5-18.1,55.7a16.69,16.69,0,0,0,.9,5.5A18.41,18.41,0,0,0,28,91.6"/><path class="cls-1" d="M45.2,90.3a17.7,17.7,0,0,1-5.1-4,19.53,19.53,0,0,1-3.4-6A22,22,0,0,1,35.4,73c0-15.4,14.1-24.1,12-44,2.8,2.5,5,6.9,6.3,10A22,22,0,0,1,55,46.3c0,13.3-12.1,23.1-12.1,37.3a11.48,11.48,0,0,0,.6,3.7,8.72,8.72,0,0,0,1.7,3"/><path class="cls-1" d="M9.8,64.2a17.7,17.7,0,0,1-5.1-4,19.53,19.53,0,0,1-3.4-6A20.23,20.23,0,0,1,0,46.8c0-15.4,14.1-24.1,12-44,2.8,2.5,5,6.9,6.3,10a22,22,0,0,1,1.3,7.3c0,13.3-12.1,23.1-12.1,37.3a11.48,11.48,0,0,0,.6,3.7,10.3,10.3,0,0,0,1.7,3.1"/></g></g></svg>