<?xml version="1.0" encoding="UTF-8" standalone="no"?>
<svg
   xmlns:dc="http://purl.org/dc/elements/1.1/"
   xmlns:cc="http://creativecommons.org/ns#"
   xmlns:rdf="http://www.w3.org/1999/02/22-rdf-syntax-ns#"
   xmlns:svg="http://www.w3.org/2000/svg"
   xmlns="http://www.w3.org/2000/svg"
   xmlns:sodipodi="http://sodipodi.sourceforge.net/DTD/sodipodi-0.dtd"
   xmlns:inkscape="http://www.inkscape.org/namespaces/inkscape"
   id="Layer_1"
   data-name="Layer 1"
   viewBox="0 0 16 16"
   version="1.1"
   sodipodi:docname="icon-binding-protected-white.svg"
   width="16"
   height="16"
   inkscape:version="0.92.2 (5c3e80d, 2017-08-06)">
  <metadata
     id="metadata867">
    <rdf:RDF>
      <cc:Work
         rdf:about="">
        <dc:format>image/svg+xml</dc:format>
        <dc:type
           rdf:resource="http://purl.org/dc/dcmitype/StillImage" />
        <dc:title>binding</dc:title>
      </cc:Work>
    </rdf:RDF>
  </metadata>
  <sodipodi:namedview
     pagecolor="#ffffff"
     bordercolor="#666666"
     borderopacity="1"
     objecttolerance="10"
     gridtolerance="10"
     guidetolerance="10"
     inkscape:pageopacity="1"
     inkscape:pageshadow="2"
     inkscape:window-width="1920"
     inkscape:window-height="986"
     id="namedview865"
     showgrid="false"
     inkscape:zoom="38.15"
     inkscape:cx="4.7051114"
     inkscape:cy="10"
     inkscape:window-x="-11"
     inkscape:window-y="-11"
     inkscape:window-maximized="1"
     inkscape:current-layer="Layer_1" />
  <defs
     id="defs844">
    <style
       id="style842">.cls-1{fill:#fff;}.cls-2{fill:#555;}</style>
  </defs>
  <title
     id="title846">binding</title>
  <rect
     style="fill:#ffffff;fill-opacity:1"
     id="rect1424"
     width="15.910878"
     height="15.910878"
     x="0.052424639"
     y="0.062909566" />
  <polygon
     class="cls-1"
     points="4.67,13.85 4.67,10.83 8.45,10.83 8.45,6.56 11.55,6.56 11.55,10.83 16.17,10.83 16.17,13.85 "
     id="polygon848"
     style="fill:#ffffff"
     transform="translate(-1.9921363,-2.0602883)" />
  <path
     class="cls-2"
     d="m 9.057864,4.9997117 v 4.27 h 4.62 V 11.269712 H 3.1778637 V 9.2697117 h 3.83 v -4.27 H 9.107864 m 1,-1 H 6.0078637 v 4.27 h -3.83 V 12.269712 H 14.677864 V 8.2697117 h -4.62 v -4.27 z"
     id="path850"
     inkscape:connector-curvature="0"
     style="fill:#555555" />
  <rect
     class="cls-1"
     x="1.7478637"
     y="8.2697115"
     width="2"
     height="4"
     id="rect852"
     style="fill:#ffffff" />
  <path
     class="cls-2"
     d="m 3.2478637,8.7697117 v 3.0000003 h -1 V 8.7697117 h 1 m 1,-1 h -3 v 5.0000003 h 3 z"
     id="path854"
     inkscape:connector-curvature="0"
     style="fill:#555555" />
  <rect
     class="cls-1"
     x="12.267864"
     y="8.2697115"
     width="2"
     height="4"
     id="rect856"
     style="fill:#ffffff" />
  <path
     class="cls-2"
     d="m 13.767864,8.7697117 v 3.0000003 h -1 V 8.7697117 h 1 m 1,-1 h -3 v 5.0000003 h 3 z"
     id="path858"
     inkscape:connector-curvature="0"
     style="fill:#555555" />
  <rect
     class="cls-1"
     x="5.9278641"
     y="3.6097116"
     width="4"
     height="2"
     id="rect860"
     style="fill:#ffffff" />
  <path
     class="cls-2"
     d="m 9.427864,4.1097117 v 1 H 6.4278637 v -1 H 9.427864 m 1,-1 H 5.4278637 v 3 h 5.0000003 z"
     id="path862"
     inkscape:connector-curvature="0"
     style="fill:#555555" />
  <path
     class="cls-1"
     d="m 11.370964,7.6919122 a 1.2222,1.2222 0 0 1 1.2159,1.2033 v 0.9828 h -2.4381 v -0.9828 a 1.2222,1.2222 0 0 1 1.2222,-1.2033 m 0,-0.9639 a 2.1609,2.1609 0 0 0 -2.1609,2.1546 v 0 1.3103998 h 4.3344 v -1.3103998 0 a 2.1609,2.1609 0 0 0 -2.1735,-2.1546 z"
     id="path2051"
     style="fill:#006d9a;fill-opacity:1;stroke-width:0.63"
     inkscape:connector-curvature="0" />
  <rect
     class="cls-1"
     x="7.2759643"
     y="9.8591118"
     width="8.1900005"
     height="5.6700001"
     rx="0.94499993"
     ry="0.94499993"
     id="rect2053"
     style="fill:#006d9a;fill-opacity:1;stroke-width:0.63" />
  <path
     class="cls-2"
     d="m 11.767864,12.769712 v 1.2978 h -0.7938 v -1.2978 a 0.7686,0.7686 0 0 1 -0.3843,-0.6615 0.7812,0.7812 0 0 1 1.5624,0 0.7686,0.7686 0 0 1 -0.3843,0.6615 z"
     id="path2055"
     inkscape:connector-curvature="0"
     style="fill:#ffffff;stroke-width:0.63" />
</svg>
