<?xml version="1.0" encoding="UTF-8" standalone="no"?>
<svg
   xmlns:dc="http://purl.org/dc/elements/1.1/"
   xmlns:cc="http://creativecommons.org/ns#"
   xmlns:rdf="http://www.w3.org/1999/02/22-rdf-syntax-ns#"
   xmlns:svg="http://www.w3.org/2000/svg"
   xmlns="http://www.w3.org/2000/svg"
   xmlns:sodipodi="http://sodipodi.sourceforge.net/DTD/sodipodi-0.dtd"
   xmlns:inkscape="http://www.inkscape.org/namespaces/inkscape"
   id="Layer_1"
   data-name="Layer 1"
   viewBox="0 0 16 16"
   version="1.1"
   sodipodi:docname="dropdown-icon-view.svg"
   width="16"
   height="16"
   inkscape:version="0.92.2 (5c3e80d, 2017-08-06)">
  <metadata
     id="metadata973">
    <rdf:RDF>
      <cc:Work
         rdf:about="">
        <dc:format>image/svg+xml</dc:format>
        <dc:type
           rdf:resource="http://purl.org/dc/dcmitype/StillImage" />
        <dc:title>npe</dc:title>
      </cc:Work>
    </rdf:RDF>
  </metadata>
  <sodipodi:namedview
     pagecolor="#ffffff"
     bordercolor="#666666"
     borderopacity="1"
     objecttolerance="10"
     gridtolerance="10"
     guidetolerance="10"
     inkscape:pageopacity="0"
     inkscape:pageshadow="2"
     inkscape:window-width="1920"
     inkscape:window-height="986"
     id="namedview971"
     showgrid="false"
     inkscape:zoom="11.8"
     inkscape:cx="-7.1186441"
     inkscape:cy="10"
     inkscape:window-x="-11"
     inkscape:window-y="-11"
     inkscape:window-maximized="1"
     inkscape:current-layer="Layer_1" />
  <defs
     id="defs956">
    <style
       id="style954">.cls-1{fill:#555;}</style>
  </defs>
  <title
     id="title958">npe</title>
  <path
     class="cls-1"
     d="M 11.660847,4.3391525 V 14.266653 H 1.7333475 V 4.3391525 h 9.9274995 m 0,-0.9025 H 1.7333475 a 0.9025,0.9025 0 0 0 -0.90250006,0.9025 v 9.9275005 a 0.9025,0.9025 0 0 0 0.90250006,0.9025 h 9.9274995 a 0.9025,0.9025 0 0 0 0.9025,-0.9025 V 4.3391525 a 0.9025,0.9025 0 0 0 -0.9025,-0.9025 z"
     id="path960"
     inkscape:connector-curvature="0"
     style="fill:#555555;stroke-width:0.90249997" />
  <path
     class="cls-1"
     d="m 2.2116725,3.4366525 h 8.9257245 a 1.0108,1.0108 0 0 1 1.0108,1.0108 v 0.7942 H 1.2008724 v -0.7942 a 1.0108,1.0108 0 0 1 1.0108001,-1.0108 z"
     id="path962"
     inkscape:connector-curvature="0"
     style="fill:#555555;stroke-width:0.90249997" />
  <path
     class="cls-1"
     d="M 14.368347,1.6316526 V 11.559153 H 4.4408475 V 1.6316526 h 9.9274995 m 0,-0.90250004 H 4.4408475 a 0.9025,0.9025 0 0 0 -0.9025,0.90250004 v 9.9275004 a 0.9025,0.9025 0 0 0 0.9025,0.9025 h 9.9274995 a 0.9025,0.9025 0 0 0 0.9025,-0.9025 V 1.6316526 a 0.9025,0.9025 0 0 0 -0.9025,-0.90250004 z"
     id="path964"
     inkscape:connector-curvature="0"
     style="fill:#555555;stroke-width:0.90249997" />
  <path
     class="cls-1"
     d="m 5.2169975,0.72915256 h 8.3210495 a 1.308625,1.308625 0 0 1 1.308625,1.30862494 v 0.496375 H 3.9083725 v -0.496375 a 1.308625,1.308625 0 0 1 1.308625,-1.30862494 z"
     id="path966"
     inkscape:connector-curvature="0"
     style="fill:#555555;stroke-width:0.90249997" />
  <rect
     class="cls-1"
     x="5.3433475"
     y="7.6332769"
     width="5.415"
     height="1.8049999"
     id="rect968"
     style="fill:#555555;stroke-width:0.90249997" />
</svg>
