<?xml version="1.0" encoding="UTF-8" standalone="no"?>
<svg
   xmlns:dc="http://purl.org/dc/elements/1.1/"
   xmlns:cc="http://creativecommons.org/ns#"
   xmlns:rdf="http://www.w3.org/1999/02/22-rdf-syntax-ns#"
   xmlns:svg="http://www.w3.org/2000/svg"
   xmlns="http://www.w3.org/2000/svg"
   xmlns:sodipodi="http://sodipodi.sourceforge.net/DTD/sodipodi-0.dtd"
   xmlns:inkscape="http://www.inkscape.org/namespaces/inkscape"
   id="Layer_1"
   data-name="Layer 1"
   viewBox="0 0 16 16"
   version="1.1"
   sodipodi:docname="dropdown-icon-architecture.svg"
   width="16"
   height="16"
   inkscape:version="0.92.2 (5c3e80d, 2017-08-06)">
  <metadata
     id="metadata847">
    <rdf:RDF>
      <cc:Work
         rdf:about="">
        <dc:format>image/svg+xml</dc:format>
        <dc:type
           rdf:resource="http://purl.org/dc/dcmitype/StillImage" />
        <dc:title>ETL</dc:title>
      </cc:Work>
    </rdf:RDF>
  </metadata>
  <sodipodi:namedview
     pagecolor="#ffffff"
     bordercolor="#666666"
     borderopacity="1"
     objecttolerance="10"
     gridtolerance="10"
     guidetolerance="10"
     inkscape:pageopacity="0"
     inkscape:pageshadow="2"
     inkscape:window-width="1920"
     inkscape:window-height="986"
     id="namedview845"
     showgrid="false"
     inkscape:zoom="47.6875"
     inkscape:cx="12.235911"
     inkscape:cy="8.3090007"
     inkscape:window-x="-11"
     inkscape:window-y="-11"
     inkscape:window-maximized="1"
     inkscape:current-layer="Layer_1" />
  <defs
     id="defs834">
    <style
       id="style832">.cls-1{fill:#555;}</style>
  </defs>
  <title
     id="title836">ETL</title>
  <path
     class="cls-1"
     d="m 5.5893034,10.614136 a 1.4725,1.4725 0 0 1 -0.057,-0.2185 c -0.228,0 -0.456,0 -0.703,0 -2.0615,0.0285 -3.4295,-0.6745 -3.4295,-1.14 v -0.9025 a 7.144,7.144 0 0 0 3.4295,0.779 c 0.19,0 0.3895,0 0.589,0 a 4.636,4.636 0 0 1 0.171,-0.893 l -0.0855,-0.0475 c -0.2185,0 -0.437,0 -0.6745,0 -2.0615,-0.0095 -3.4295,-0.722 -3.4295,-1.1495 v -0.95 a 6.726,6.726 0 0 0 3.059,0.76 l 0.5415,-0.9499997 h -0.171 c -2.0615,0.0285 -3.4295,-0.6745 -3.4295,-1.14 v -0.9025 a 7.144,7.144 0 0 0 3.4295,0.779 7.1345,7.1345 0 0 0 3.42,-0.779 v 0.9025 c 0,0.418 -1.1115,1.026 -2.85,1.1495 l 1.121,0.6459997 a 4.085,4.085 0 0 1 2.09,-1.1874997 v -1.672 h 0.57 v -1.178 c 0.019,-1.3775 -2.2325,-2.128 -4.351,-2.128 -2.1185,0 -4.37949999,0.7505 -4.37949999,2.128 V 9.255636 c 0,1.2635 1.89999999,1.9855 3.85699999,2.0995 z m -0.76,-9.2719997 c 2.052,0 3.42,0.7125 3.42,1.178 0,0.4655 -1.368,1.1685 -3.42,1.1685 -2.052,0 -3.4295,-0.703 -3.4295,-1.1685 0,-0.4655 1.368,-1.178 3.4295,-1.178 z"
     id="path838"
     inkscape:connector-curvature="0"
     style="fill:#555555;stroke-width:0.94999999" />
  <path
     class="cls-1"
     d="M 11.004303,15.592136 H 8.1543034 v -1.767 a 4.6265,4.6265 0 0 1 -1.691,-0.95 l -1.52,0.817 -1.425,-2.47 1.5105,-0.874 a 4.408,4.408 0 0 1 -0.114,-0.95 4.0185,4.0185 0 0 1 0.1235,-0.95 l -1.52,-0.8835 1.425,-2.4604997 1.52,0.874 a 4.75,4.75 0 0 1 1.691,-0.95 v -1.786 h 2.8499996 v 1.7955 a 4.484,4.484 0 0 1 1.6435,0.95 l 1.577,-0.95 1.425,2.5079997 -1.596,0.95 a 4.2465,4.2465 0 0 1 0.114,0.95 4.75,4.75 0 0 1 -0.1045,0.95 l 1.5865,0.95 -1.425,2.3465 -1.577,-0.9025 a 4.6265,4.6265 0 0 1 -1.6435,0.95 z m -1.8999996,-0.95 h 0.9499996 v -1.577 l 0.361,-0.095 a 3.6575,3.6575 0 0 0 1.8145,-1.064 l 0.2565,-0.2755 1.387,0.8075 0.475,-0.8265 -1.3965,-0.7695 0.1045,-0.361 a 3.572,3.572 0 0 0 0.1615,-1.026 3.3725,3.3725 0 0 0 -0.171,-1.045 l -0.1045,-0.418 1.406,-0.8075 -0.475,-0.8265 -1.3965,0.8075 -0.2565,-0.2755 a 3.6385,3.6385 0 0 0 -1.805,-1.0544997 l -0.361,-0.095 v -1.5485 H 9.1043034 v 1.558 l -0.3705,0.076 a 3.6765,3.6765 0 0 0 -1.9,1.0544997 l -0.2565,0.2755 -1.292,-0.779 -0.475,0.8265 1.3395,0.7885 -0.114,0.361 a 3.6765,3.6765 0 0 0 -0.171,1.064 3.5625,3.5625 0 0 0 0.1805,1.064 l 0.1045,0.361 -1.3395,0.7695 0.475,0.8265 1.3395,-0.779 0.2565,0.2755 a 3.6575,3.6575 0 0 0 1.9,1.064 l 0.3705,0.076 z"
     id="path840"
     inkscape:connector-curvature="0"
     style="fill:#555555;stroke-width:0.94999999" />
  <path
     class="cls-1"
     d="m 9.5793034,11.944136 a 2.5365,2.5365 0 1 1 2.5364996,-2.5365 2.5365,2.5365 0 0 1 -2.5364996,2.5365 z m 0,-4.123 a 1.5865,1.5865 0 1 0 1.5864996,1.5865 1.577,1.577 0 0 0 -1.5864996,-1.5865 z"
     id="path842"
     inkscape:connector-curvature="0"
     style="fill:#555555;stroke-width:0.94999999" />
</svg>
