<svg xmlns="http://www.w3.org/2000/svg" viewBox="0 0 194.35 48.92"><defs><style>.cls-1{fill:#fff;}</style></defs><title>Logo-Full</title><g id="Layer_2" data-name="Layer 2"><g id="Layer_1-2" data-name="Layer 1"><path class="cls-1" d="M15,48.92a12.88,12.88,0,0,1-4.06-3.22,15.45,15.45,0,0,1-2.74-4.77,17.28,17.28,0,0,1-1-5.85c0-12.28,10.2-18.94,9.11-31.36a6.07,6.07,0,0,0-.35-2A5.41,5.41,0,0,0,15,0,12.91,12.91,0,0,1,19,3.22,15.45,15.45,0,0,1,21.77,8a17.31,17.31,0,0,1,1,5.85c0,10.62-9.67,18.41-9.67,29.77a8.62,8.62,0,0,0,.5,2.92A7.73,7.73,0,0,0,15,48.92"/><polygon class="cls-1" points="47.51 31.08 47.51 23.39 40.36 23.39 40.36 31.08 37.31 31.08 37.31 13.63 40.36 13.63 40.36 20.93 47.51 20.93 47.51 13.63 50.57 13.63 50.57 31.08 47.51 31.08"/><path class="cls-1" d="M55.18,25.83C55.33,28.4,56.67,29,58.74,29a38.05,38.05,0,0,0,4.79-.34l.24,2.12a33.57,33.57,0,0,1-5.76.49c-4.47,0-5.65-2.9-5.65-6.86,0-4.84,1.5-6.85,5.94-6.85,4.8,0,5.83,2.53,5.83,6.51,0,.32,0,.65,0,1-1.53.27-4.71.58-6.56.67Zm2.61-2.07c1,0,2.53-.17,3.45-.3a5.79,5.79,0,0,0,0-.62c0-2-.75-3.14-3-3.14-2.81,0-3.19,1.78-3.19,4.19Z"/><path class="cls-1" d="M65.56,27.11c0-2.33,1-3.79,3.59-4.18a44.13,44.13,0,0,1,4.73-.35c0-1.85-.81-2.78-2.84-2.78a38.22,38.22,0,0,0-4.64.34L66.17,18a30.84,30.84,0,0,1,5.14-.49c2.94,0,5.36.8,5.36,4.2v5.88c0,.88,0,1.64-.11,2.45a12.19,12.19,0,0,1-6,1.17c-3.61,0-5-1.42-5-4.16m8.32-2.67a20.36,20.36,0,0,0-3.63.32c-1.39.32-1.88.75-1.88,2.31s.93,2.08,2.64,2.08a6.91,6.91,0,0,0,2.79-.46,17.24,17.24,0,0,0,.08-1.79Z"/><path class="cls-1" d="M79,12.59h2.85V27.5a4.51,4.51,0,0,0,1,3l-2.48,1.18a5.67,5.67,0,0,1-1.35-4Z"/><path class="cls-1" d="M92,31.07a13.13,13.13,0,0,1-2,.2c-2.7,0-3.85-1.18-3.85-3.64V19.85H83.84V17.74H86.1v-3.3L89,14v3.77h2.77v2.11H89v7.53c0,1.29.55,1.69,1.78,1.69.34,0,.67,0,1,0Z"/><path class="cls-1" d="M105.38,31.08h-2.85V22.87c0-2.13-.39-3-3.14-3a6.42,6.42,0,0,0-2.52.52V31.08H94V12.59h2.85v5.48a10.91,10.91,0,0,1,3.3-.5c4.71,0,5.21,2.19,5.21,5Z"/><path class="cls-1" d="M119.7,16.24a22,22,0,0,0-3.43-.28c-4.69,0-4.73,2.71-4.73,6.4s0,6.4,4.73,6.4a22,22,0,0,0,3.43-.28l.27,2.31a18.84,18.84,0,0,1-4.38.48c-5.75,0-7.16-2.71-7.16-8.91s1.42-8.91,7.16-8.91a18.84,18.84,0,0,1,4.38.48Z"/><path class="cls-1" d="M121.77,27.11c0-2.33,1-3.79,3.59-4.18a44.15,44.15,0,0,1,4.73-.35c0-1.85-.81-2.78-2.84-2.78a38.22,38.22,0,0,0-4.64.34L122.38,18a30.84,30.84,0,0,1,5.14-.49c2.94,0,5.36.8,5.36,4.2v5.88c0,.88,0,1.64-.11,2.45a12.19,12.19,0,0,1-6,1.17c-3.61,0-5-1.42-5-4.16m8.32-2.67a20.35,20.35,0,0,0-3.63.32c-1.39.32-1.88.75-1.88,2.31s.93,2.08,2.64,2.08a6.91,6.91,0,0,0,2.79-.46,17.4,17.4,0,0,0,.08-1.79Z"/><path class="cls-1" d="M142.39,31.07a13.14,13.14,0,0,1-2,.2c-2.71,0-3.85-1.18-3.85-3.64V19.85h-2.25V17.74h2.25v-3.3l2.86-.46v3.77h2.77v2.11h-2.77v7.53c0,1.29.55,1.69,1.78,1.69.34,0,.67,0,1,0Z"/><path class="cls-1" d="M144.41,27.11c0-2.33,1-3.79,3.59-4.18a44.13,44.13,0,0,1,4.73-.35c0-1.85-.81-2.78-2.84-2.78a38.25,38.25,0,0,0-4.64.34L145,18a30.85,30.85,0,0,1,5.14-.49c2.94,0,5.36.8,5.36,4.2v5.88c0,.88,0,1.64-.11,2.45a12.2,12.2,0,0,1-6,1.17c-3.61,0-5-1.42-5-4.16m8.32-2.67a20.36,20.36,0,0,0-3.63.32c-1.39.32-1.88.75-1.88,2.31s.93,2.08,2.64,2.08a6.9,6.9,0,0,0,2.79-.46,17.08,17.08,0,0,0,.08-1.79Z"/><path class="cls-1" d="M157.33,12.59h2.86V27.5a4.51,4.51,0,0,0,1,3l-2.48,1.18a5.67,5.67,0,0,1-1.35-4Z"/><polygon class="cls-1" points="168.83 26.66 171.69 17.74 174.57 17.74 168.36 36 165.48 36 167.54 30.19 162.16 17.74 165.17 17.74 168.83 26.66"/><path class="cls-1" d="M181.75,27.44c0-1.53-1.37-1.66-2.61-2C177,24.75,175,24.2,175,21.33s2.06-3.77,4.7-3.77a19.8,19.8,0,0,1,4.74.52l-.27,2.09a18,18,0,0,0-3.33-.36c-1.08,0-3,0-3,1.36s1.62,1.65,2.73,2c2.28.77,4.12,1.2,4.12,4.13s-2.28,3.93-5.2,3.93a20.69,20.69,0,0,1-4.61-.52l.27-2.13a22.55,22.55,0,0,0,3.55.37c1.06,0,3.09,0,3.09-1.54"/><path class="cls-1" d="M194.35,31.07a13.12,13.12,0,0,1-2,.2c-2.7,0-3.85-1.18-3.85-3.64V19.85h-2.25V17.74h2.25v-3.3l2.85-.46v3.77h2.77v2.11h-2.77v7.53c0,1.29.55,1.69,1.78,1.69.34,0,.67,0,1,0Z"/><path class="cls-1" d="M24.16,48.25a8.67,8.67,0,0,1-2.72-2.16,10.32,10.32,0,0,1-1.83-3.2A11.59,11.59,0,0,1,18.94,39c0-8.23,7.54-12.87,6.39-23.49a15.82,15.82,0,0,1,3.38,5.35,11.58,11.58,0,0,1,.67,3.91c0,7.11-6.47,12.33-6.47,19.94a5.77,5.77,0,0,0,.34,2,5.15,5.15,0,0,0,.92,1.6"/><path class="cls-1" d="M5.22,34.29A8.66,8.66,0,0,1,2.5,32.13a10.33,10.33,0,0,1-1.83-3.2A11.58,11.58,0,0,1,0,25C0,16.79,7.55,12.15,6.39,1.53A15.81,15.81,0,0,1,9.77,6.88a11.55,11.55,0,0,1,.67,3.91C10.44,17.91,4,23.12,4,30.73a5.81,5.81,0,0,0,.34,2,5.17,5.17,0,0,0,.92,1.6"/><path class="cls-1" d="M37.26,36.33c0-.33.08-.45.37-.45s.37.12.37.45-.08.45-.37.45-.37-.11-.37-.45m.06,1.35h.61V42.2h-.61Z"/><path class="cls-1" d="M39.43,43.27A10.35,10.35,0,0,0,41,43.4c1,0,1.23-.3,1.23-1V42a4.94,4.94,0,0,1-1.25.17c-1.34,0-1.89-.56-1.89-2.26s.61-2.27,2-2.27a3.75,3.75,0,0,1,1.69.36c0,.25,0,.51,0,.77v3.79c0,1.12-.76,1.37-1.72,1.37a10.35,10.35,0,0,1-1.71-.16Zm.24-3.37c0,1.24.23,1.75,1.47,1.75a3.59,3.59,0,0,0,1.05-.18V39c0-.21,0-.49,0-.71a2.85,2.85,0,0,0-1.09-.2c-1.11,0-1.41.58-1.41,1.76"/><path class="cls-1" d="M44.75,42.2h-.61V38.77c0-.26,0-.52,0-.77a5.23,5.23,0,0,1,2-.38c1.54,0,1.69.73,1.69,1.64V42.2h-.62V39.38c0-.85-.15-1.24-1.28-1.24a3.66,3.66,0,0,0-1.22.22c0,.21,0,.49,0,.71Z"/><path class="cls-1" d="M49.12,36.33c0-.33.08-.45.37-.45s.37.12.37.45-.08.45-.37.45-.37-.11-.37-.45m.06,1.35h.62V42.2h-.62Z"/><path class="cls-1" d="M52.17,36.41v1.27h1v.49h-1V41c0,.64.22.76.77.76h.25l.05.47a3.17,3.17,0,0,1-.49,0c-.83,0-1.19-.36-1.19-1.18v-2.9h-.83v-.49h.83V36.51Z"/><path class="cls-1" d="M53.92,39.94c0-1.64.49-2.31,2-2.31s1.94.8,1.94,2c0,.13,0,.29,0,.43-.52.09-1.59.19-2.22.21l-1.07,0c.08.92.35,1.4,1.49,1.4a11.64,11.64,0,0,0,1.59-.13l.06.5a11.23,11.23,0,0,1-1.89.15c-1.48,0-1.87-1-1.87-2.32m1.79-.12c.4,0,1.07-.07,1.49-.12,0-.09,0-.22,0-.32,0-.76-.33-1.25-1.32-1.25s-1.37.58-1.37,1.75Z"/><path class="cls-1" d="M61.24,39.94c0-1.69.53-2.31,2-2.31s2,.65,2,2.31-.52,2.32-2,2.32-2-.63-2-2.32m3.34,0c0-1.37-.32-1.79-1.36-1.79s-1.36.36-1.36,1.79.34,1.8,1.36,1.8,1.36-.43,1.36-1.8"/><path class="cls-1" d="M66.37,37.69H67V40.5c0,.85.15,1.24,1.28,1.24a3.61,3.61,0,0,0,1.21-.22c0-.21,0-.49,0-.71V37.69h.61v3.42c0,.26,0,.52,0,.77a5.19,5.19,0,0,1-2,.38c-1.53,0-1.69-.73-1.69-1.64Z"/><path class="cls-1" d="M72.52,36.41v1.27h1v.49h-1V41c0,.64.22.76.77.76h.25l0,.47a3.15,3.15,0,0,1-.49,0c-.83,0-1.19-.36-1.19-1.18v-2.9h-.83v-.49h.83V36.51Z"/><path class="cls-1" d="M77.28,42.12a5.54,5.54,0,0,1-1.18.13c-1.52,0-1.8-1.07-1.8-2.36,0-1.48.33-2.27,2-2.27a3.81,3.81,0,0,1,1,.13l-.05.47a4.79,4.79,0,0,0-.75-.08c-1.41,0-1.55.49-1.55,1.74s.1,1.83,1.54,1.83a4.2,4.2,0,0,0,.76-.1Z"/><path class="cls-1" d="M78,39.94c0-1.69.53-2.31,2-2.31s2,.65,2,2.31-.52,2.32-2,2.32-2-.63-2-2.32m3.34,0c0-1.37-.32-1.79-1.36-1.79s-1.36.36-1.36,1.79.34,1.8,1.36,1.8,1.36-.43,1.36-1.8"/><path class="cls-1" d="M83.8,42.2h-.61V38.77c0-.26,0-.52,0-.77a5.15,5.15,0,0,1,1.85-.38,1.58,1.58,0,0,1,1.17.36,3.86,3.86,0,0,1,1.66-.36c1.35,0,1.55.75,1.55,1.64V42.2h-.61V39.38c0-.86-.21-1.23-1.13-1.23a2.71,2.71,0,0,0-1.18.3,2.56,2.56,0,0,1,.11.82V42.2H86V39.38c0-.86-.21-1.23-1.13-1.23a3.18,3.18,0,0,0-1.06.22c0,.21,0,.49,0,.71Z"/><path class="cls-1" d="M90.64,39.94c0-1.64.49-2.31,2-2.31s1.94.8,1.94,2c0,.13,0,.29,0,.43-.52.09-1.59.19-2.22.21l-1.07,0c.08.92.35,1.4,1.49,1.4a11.64,11.64,0,0,0,1.59-.13l.06.5a11.23,11.23,0,0,1-1.89.15c-1.48,0-1.87-1-1.87-2.32m1.79-.12c.4,0,1.07-.07,1.49-.12,0-.09,0-.22,0-.32,0-.76-.33-1.25-1.32-1.25s-1.37.58-1.37,1.75Z"/><path class="cls-1" d="M96.14,38.77c0,.6.46.67,1.11.87.91.28,1.42.51,1.42,1.34,0,1-.74,1.27-1.72,1.27a6.69,6.69,0,0,1-1.43-.15l.06-.48a7.46,7.46,0,0,0,1.16.11c.53,0,1.31,0,1.31-.71s-.4-.67-1.1-.88-1.41-.38-1.41-1.31.65-1.21,1.56-1.21a6.81,6.81,0,0,1,1.47.15l-.06.48a6.56,6.56,0,0,0-1.13-.11c-.52,0-1.22,0-1.22.63"/><path class="cls-1" d="M102,36.33c0-.33.08-.45.37-.45s.37.12.37.45-.08.45-.37.45-.37-.11-.37-.45m.06,1.35h.62V42.2h-.62Z"/><path class="cls-1" d="M104.62,42.2H104V38.77c0-.26,0-.52,0-.77a5.15,5.15,0,0,1,1.85-.38,1.58,1.58,0,0,1,1.17.36,3.85,3.85,0,0,1,1.66-.36c1.35,0,1.55.75,1.55,1.64V42.2h-.61V39.38c0-.86-.21-1.23-1.13-1.23a2.71,2.71,0,0,0-1.18.3,2.57,2.57,0,0,1,.11.82V42.2h-.61V39.38c0-.86-.21-1.23-1.13-1.23a3.17,3.17,0,0,0-1.06.22c0,.21,0,.49,0,.71Z"/><path class="cls-1" d="M112.22,43.86h-.61v-5.1c0-.26,0-.52,0-.77a3.76,3.76,0,0,1,1.69-.36c1.43,0,2,.56,2,2.32s-.55,2.31-1.89,2.31a5,5,0,0,1-1.25-.17Zm1.05-2.11c1.25,0,1.47-.54,1.47-1.8s-.3-1.81-1.42-1.81a2.85,2.85,0,0,0-1.09.2c0,.22,0,.5,0,.71v2.52a3.61,3.61,0,0,0,1.05.18"/><path class="cls-1" d="M116.52,42.2V38.76c0-.26,0-.52,0-.77a3.75,3.75,0,0,1,1.69-.36l.42,0-.05.52-.37,0a2.85,2.85,0,0,0-1.09.21c0,.21,0,.5,0,.71V42.2Z"/><path class="cls-1" d="M119.32,39.94c0-1.69.53-2.31,2-2.31s2,.65,2,2.31-.52,2.32-2,2.32-2-.63-2-2.32m3.34,0c0-1.37-.32-1.79-1.36-1.79s-1.36.36-1.36,1.79.34,1.8,1.36,1.8,1.36-.43,1.36-1.8"/><path class="cls-1" d="M126.53,41.82c-.11.29-.25.44-.48.44s-.39-.14-.5-.44L124,37.69h.66l1.43,3.84,1.46-3.84h.63Z"/><path class="cls-1" d="M128.82,39.94c0-1.64.49-2.31,2-2.31s1.94.8,1.94,2c0,.13,0,.29,0,.43-.52.09-1.58.19-2.22.21l-1.07,0c.08.92.35,1.4,1.49,1.4a11.63,11.63,0,0,0,1.59-.13l.06.5a11.24,11.24,0,0,1-1.89.15c-1.48,0-1.87-1-1.87-2.32m1.79-.12c.4,0,1.07-.07,1.49-.12,0-.09,0-.22,0-.32,0-.76-.33-1.25-1.32-1.25s-1.37.58-1.37,1.75Z"/><path class="cls-1" d="M134.47,42.2h-.61V38.77c0-.26,0-.52,0-.77a5.15,5.15,0,0,1,1.85-.38,1.58,1.58,0,0,1,1.17.36,3.85,3.85,0,0,1,1.66-.36c1.35,0,1.55.75,1.55,1.64V42.2h-.61V39.38c0-.86-.21-1.23-1.13-1.23a2.71,2.71,0,0,0-1.18.3,2.57,2.57,0,0,1,.11.82V42.2h-.61V39.38c0-.86-.21-1.23-1.13-1.23a3.17,3.17,0,0,0-1.06.22c0,.21,0,.49,0,.71Z"/><path class="cls-1" d="M141.31,39.94c0-1.64.49-2.31,2-2.31s1.94.8,1.94,2c0,.13,0,.29,0,.43-.52.09-1.58.19-2.22.21l-1.07,0c.08.92.35,1.4,1.49,1.4a11.63,11.63,0,0,0,1.59-.13l.06.5a11.24,11.24,0,0,1-1.89.15c-1.48,0-1.87-1-1.87-2.32m1.79-.12c.4,0,1.07-.07,1.49-.12,0-.09,0-.22,0-.32,0-.76-.33-1.25-1.32-1.25s-1.37.58-1.37,1.75Z"/><path class="cls-1" d="M147,42.2h-.61V38.77c0-.26,0-.52,0-.77a5.23,5.23,0,0,1,2-.38c1.54,0,1.69.73,1.69,1.64V42.2h-.62V39.38c0-.85-.15-1.24-1.28-1.24a3.67,3.67,0,0,0-1.22.22c0,.21,0,.49,0,.71Z"/><path class="cls-1" d="M152.42,36.41v1.27h1v.49h-1V41c0,.64.22.76.77.76h.25l0,.47a3.16,3.16,0,0,1-.49,0c-.83,0-1.19-.36-1.19-1.18v-2.9H151v-.49h.82V36.51Z"/></g></g></svg>